# xmcd
#
# Track frame offsets: 
#        150
#        17825
#        37050
#        59088
#        73064
#        101174
#        117271
#        132671
#        155496
#        188581
#        208814
#        237036
#        259336
#        283224
#        305269
#        322569
#        345051
#
# Disc length: 4798 seconds
#
# Revision: 0
# Processed by: cddbd v1.5.2PL0 Copyright (c) Steve Scherf et al.
# Submitted via: ExactAudioCopy v1.3
#
DISCID=fb12bc11
DTITLE=Various Artist - Akella Presents - vol.136 - Black Pure Blues 
DTITLE=CD2
DYEAR=2018
DGENRE=Blues
TTITLE0=Ronnie Baker Brooks - Half
TTITLE1=Freddie King - Living On The Highway
TTITLE2=B.B. King - All Over Again
TTITLE3=Pinetop Perkins - Barefootin'
TTITLE4=Michael 'Iron Man' Burks - Empty Promises
TTITLE5=Woody Garrett - That's Why
TTITLE6=Eddie C. Campbell - Alimony
TTITLE7=Big Pete Pearson - Mini Skirt
TTITLE8=Roosevelt Booba Barnes - Heartbroken Man
TTITLE9=Jerry McCain - My Baby's Got It
TTITLE10=Jordan Patterson - Give Me A Chance
TTITLE11=Billy Cox - Woke Up With That
TTITLE12=Larry Garner - Shak Bully
TTITLE13=Maurice John Vaughn - Watching Your Watch
TTITLE14=Final Step Blues Band - Final Step Boogie
TTITLE15=Joe Beard - Three Day Love Affair
TTITLE16=James Son Thomas - Black Rat
EXTD=
EXTT0=
EXTT1=
EXTT2=
EXTT3=
EXTT4=
EXTT5=
EXTT6=
EXTT7=
EXTT8=
EXTT9=
EXTT10=
EXTT11=
EXTT12=
EXTT13=
EXTT14=
EXTT15=
EXTT16=
PLAYORDER=
